<?xml version="1.0" encoding="UTF-8" standalone="no"?>
<svg
   xmlns:dc="http://purl.org/dc/elements/1.1/"
   xmlns:cc="http://creativecommons.org/ns#"
   xmlns:rdf="http://www.w3.org/1999/02/22-rdf-syntax-ns#"
   xmlns:svg="http://www.w3.org/2000/svg"
   xmlns="http://www.w3.org/2000/svg"
   xmlns:sodipodi="http://sodipodi.sourceforge.net/DTD/sodipodi-0.dtd"
   xmlns:inkscape="http://www.inkscape.org/namespaces/inkscape"
   width="118.98452mm"
   height="109.72411mm"
   viewBox="0 0 118.98452 109.72411"
   version="1.1">
  <g
     style="display:inline"
     transform="translate(-26.686309,-53.900598)">
    <rect
       style="fill:none;stroke:#000000;stroke-width:0.3;stroke-miterlimit:10;stroke-opacity:0.995935"
       id="vennE"
       width="118.68452"
       height="109.42411"
       x="26.836309"
       y="54.050598"
       />
    <path
       id="vennA"
       style="fill:none;stroke:#000000;stroke-width:1.13386;stroke-miterlimit:10;stroke-opacity:0.995935"
       d="m 207.09766,362.28125 a 118.57143,118.57143 0 0 0 -67.93946,107.21484 118.57143,118.57143 0 0 0 118.57032,118.57227 118.57143,118.57143 0 0 0 70.00195,-22.86914 118.57143,118.57143 0 0 1 -48.57227,-95.70313 118.57143,118.57143 0 0 1 1.39453,-18.14062 118.57143,118.57143 0 0 1 -73.45507,-89.07422 z"
       transform="scale(0.26458333)"
        />
    <path
       id="vennC"
       style="fill:none;stroke:#000000;stroke-width:1.13386;stroke-miterlimit:10;stroke-opacity:0.995935"
       d="m 323.72852,222.35352 a 118.57143,118.57143 0 0 0 -118.57032,118.57226 118.57143,118.57143 0 0 0 1.93946,21.35547 118.57143,118.57143 0 0 1 50.25781,-11.35547 118.57143,118.57143 0 0 1 0.37305,0 118.57143,118.57143 0 0 1 70.00195,22.86914 118.57143,118.57143 0 0 1 69.99805,-22.86914 118.57143,118.57143 0 0 1 43.17578,8.14063 118.57143,118.57143 0 0 0 1.39648,-18.14063 118.57143,118.57143 0 0 0 -118.57226,-118.57226 z"
       transform="scale(0.26458333)"
        />
    <path
       id="vennB"
       style="fill:none;stroke:#000000;stroke-width:1.13386;stroke-miterlimit:10;stroke-opacity:0.995935"
       d="m 440.9043,359.06641 a 118.57143,118.57143 0 0 1 -66.54297,89.07617 118.57143,118.57143 0 0 1 1.93945,21.35351 118.57143,118.57143 0 0 1 -48.57031,95.70508 118.57143,118.57143 0 0 0 69.99805,22.86719 A 118.57143,118.57143 0 0 0 516.30078,469.49609 118.57143,118.57143 0 0 0 440.9043,359.06641 Z"
       transform="scale(0.26458333)"
        />
    <path
       id="vennBC"
       style="fill:none;stroke:#000000;stroke-width:1.13386;stroke-miterlimit:10;stroke-opacity:0.995935"
       d="m 397.35547,350.92578 a 118.57143,118.57143 0 0 0 -69.62695,22.86719 118.57143,118.57143 0 0 1 46.63281,74.34765 118.57143,118.57143 0 0 0 66.54297,-89.07421 118.57143,118.57143 0 0 0 -43.17578,-8.14063 118.57143,118.57143 0 0 0 -0.37305,0 z"
       transform="scale(0.26458333)"
        />
    <path
       id="vennAB"
       style="fill:none;stroke:#000000;stroke-width:1.13386;stroke-miterlimit:10;stroke-opacity:0.995935"
       d="m 374.36133,448.14258 a 118.57143,118.57143 0 0 1 -50.63281,11.35351 118.57143,118.57143 0 0 1 -43.17383,-8.14062 118.57143,118.57143 0 0 0 -1.39649,18.14062 118.57143,118.57143 0 0 0 48.57032,95.70313 118.57143,118.57143 0 0 0 48.57226,-95.70313 118.57143,118.57143 0 0 0 -1.93945,-21.35351 z"
       transform="scale(0.26458333)"
        />
    <path
       id="vennAC"
       style="fill:none;stroke:#000000;stroke-width:1.13386;stroke-miterlimit:10;stroke-opacity:0.995935"
       d="m 257.35547,350.92578 a 118.57143,118.57143 0 0 0 -50.25781,11.35547 118.57143,118.57143 0 0 0 73.45507,89.07227 118.57143,118.57143 0 0 1 47.17579,-77.5586 118.57143,118.57143 0 0 0 -70,-22.86914 118.57143,118.57143 0 0 0 -0.37305,0 z"
       transform="scale(0.26458333)"
        />
    <path
       id="vennABC"
       style="fill:none;stroke:#000000;stroke-width:1.13386;stroke-miterlimit:10;stroke-opacity:0.995935"
       d="m 327.85742,373.58203 a 118.57143,118.57143 0 0 0 -47.17578,77.5625 118.57143,118.57143 0 0 0 43.17578,8.14063 118.57143,118.57143 0 0 0 50.63086,-11.35352 118.57143,118.57143 0 0 0 -46.63086,-74.34961 z"
       transform="scale(0.26458333)"
       />
  </g>
</svg>
